<mxfile host="app.diagrams.net" modified="2024-04-24T19:41:57.024Z" agent="Mozilla/5.0 (Macintosh; Intel Mac OS X 10_15_7) AppleWebKit/537.36 (KHTML, like Gecko) Chrome/123.0.0.0 Safari/537.36" etag="5BTNtSIHVqVlK1eFkjZH" version="24.0.7" type="google">
  <diagram name="Page-1" id="MhqQLZqeHDJVzLrUgXNr">
    <mxGraphModel grid="1" page="1" gridSize="10" guides="1" tooltips="1" connect="1" arrows="1" fold="1" pageScale="1" pageWidth="850" pageHeight="1100" math="0" shadow="0">
      <root>
        <mxCell id="0" />
        <mxCell id="1" parent="0" />
        <mxCell id="c-4hdjWBJge9S7SUYtmN-1" value="" style="rounded=0;whiteSpace=wrap;html=1;" vertex="1" parent="1">
          <mxGeometry x="330" y="170" width="160" height="80" as="geometry" />
        </mxCell>
        <mxCell id="c-4hdjWBJge9S7SUYtmN-2" value="" style="rounded=0;whiteSpace=wrap;html=1;" vertex="1" parent="1">
          <mxGeometry x="170" y="370" width="120" height="60" as="geometry" />
        </mxCell>
        <mxCell id="c-4hdjWBJge9S7SUYtmN-3" value="" style="rounded=0;whiteSpace=wrap;html=1;" vertex="1" parent="1">
          <mxGeometry x="350" y="370" width="120" height="60" as="geometry" />
        </mxCell>
        <mxCell id="c-4hdjWBJge9S7SUYtmN-4" value="" style="rounded=0;whiteSpace=wrap;html=1;" vertex="1" parent="1">
          <mxGeometry x="530" y="370" width="120" height="60" as="geometry" />
        </mxCell>
        <mxCell id="c-4hdjWBJge9S7SUYtmN-5" value="" style="endArrow=classic;startArrow=classic;html=1;rounded=0;entryX=0.5;entryY=1;entryDx=0;entryDy=0;exitX=1;exitY=0;exitDx=0;exitDy=0;" edge="1" parent="1" source="c-4hdjWBJge9S7SUYtmN-2" target="c-4hdjWBJge9S7SUYtmN-1">
          <mxGeometry width="50" height="50" relative="1" as="geometry">
            <mxPoint x="370" y="340" as="sourcePoint" />
            <mxPoint x="420" y="290" as="targetPoint" />
          </mxGeometry>
        </mxCell>
        <mxCell id="c-4hdjWBJge9S7SUYtmN-6" value="Proxy Server" style="text;html=1;align=center;verticalAlign=middle;whiteSpace=wrap;rounded=0;" vertex="1" parent="1">
          <mxGeometry x="365" y="195" width="90" height="30" as="geometry" />
        </mxCell>
        <mxCell id="c-4hdjWBJge9S7SUYtmN-7" value="Alpine:k8s" style="text;html=1;align=center;verticalAlign=middle;whiteSpace=wrap;rounded=0;" vertex="1" parent="1">
          <mxGeometry x="200" y="385" width="60" height="30" as="geometry" />
        </mxCell>
        <mxCell id="c-4hdjWBJge9S7SUYtmN-8" value="Rocky:k8s" style="text;html=1;align=center;verticalAlign=middle;whiteSpace=wrap;rounded=0;" vertex="1" parent="1">
          <mxGeometry x="380" y="385" width="60" height="30" as="geometry" />
        </mxCell>
        <mxCell id="c-4hdjWBJge9S7SUYtmN-9" value="Ubuntu:k8s" style="text;html=1;align=center;verticalAlign=middle;whiteSpace=wrap;rounded=0;" vertex="1" parent="1">
          <mxGeometry x="560" y="385" width="60" height="30" as="geometry" />
        </mxCell>
        <mxCell id="c-4hdjWBJge9S7SUYtmN-10" value="" style="rounded=0;whiteSpace=wrap;html=1;" vertex="1" parent="1">
          <mxGeometry x="60" y="490" width="60" height="50" as="geometry" />
        </mxCell>
        <mxCell id="c-4hdjWBJge9S7SUYtmN-11" value="" style="rounded=0;whiteSpace=wrap;html=1;" vertex="1" parent="1">
          <mxGeometry x="140" y="490" width="60" height="50" as="geometry" />
        </mxCell>
        <mxCell id="c-4hdjWBJge9S7SUYtmN-12" value="" style="rounded=0;whiteSpace=wrap;html=1;" vertex="1" parent="1">
          <mxGeometry x="220" y="490" width="60" height="50" as="geometry" />
        </mxCell>
        <mxCell id="c-4hdjWBJge9S7SUYtmN-14" value="" style="rounded=0;whiteSpace=wrap;html=1;" vertex="1" parent="1">
          <mxGeometry x="300" y="490" width="60" height="50" as="geometry" />
        </mxCell>
        <mxCell id="c-4hdjWBJge9S7SUYtmN-15" value="" style="rounded=0;whiteSpace=wrap;html=1;" vertex="1" parent="1">
          <mxGeometry x="380" y="490" width="60" height="50" as="geometry" />
        </mxCell>
        <mxCell id="c-4hdjWBJge9S7SUYtmN-16" value="" style="rounded=0;whiteSpace=wrap;html=1;" vertex="1" parent="1">
          <mxGeometry x="460" y="490" width="60" height="50" as="geometry" />
        </mxCell>
        <mxCell id="c-4hdjWBJge9S7SUYtmN-17" value="" style="rounded=0;whiteSpace=wrap;html=1;" vertex="1" parent="1">
          <mxGeometry x="540" y="490" width="60" height="50" as="geometry" />
        </mxCell>
        <mxCell id="c-4hdjWBJge9S7SUYtmN-18" value="" style="rounded=0;whiteSpace=wrap;html=1;" vertex="1" parent="1">
          <mxGeometry x="620" y="490" width="60" height="50" as="geometry" />
        </mxCell>
        <mxCell id="c-4hdjWBJge9S7SUYtmN-19" value="" style="rounded=0;whiteSpace=wrap;html=1;" vertex="1" parent="1">
          <mxGeometry x="700" y="490" width="60" height="50" as="geometry" />
        </mxCell>
        <mxCell id="c-4hdjWBJge9S7SUYtmN-20" value="Apache" style="text;html=1;align=center;verticalAlign=middle;whiteSpace=wrap;rounded=0;" vertex="1" parent="1">
          <mxGeometry x="220" y="500" width="60" height="30" as="geometry" />
        </mxCell>
        <mxCell id="c-4hdjWBJge9S7SUYtmN-21" value="Apache" style="text;html=1;align=center;verticalAlign=middle;whiteSpace=wrap;rounded=0;" vertex="1" parent="1">
          <mxGeometry x="140" y="500" width="60" height="30" as="geometry" />
        </mxCell>
        <mxCell id="c-4hdjWBJge9S7SUYtmN-22" value="Apache" style="text;html=1;align=center;verticalAlign=middle;whiteSpace=wrap;rounded=0;" vertex="1" parent="1">
          <mxGeometry x="60" y="500" width="60" height="30" as="geometry" />
        </mxCell>
        <mxCell id="c-4hdjWBJge9S7SUYtmN-23" value="Nginx" style="text;html=1;align=center;verticalAlign=middle;whiteSpace=wrap;rounded=0;" vertex="1" parent="1">
          <mxGeometry x="300" y="500" width="60" height="30" as="geometry" />
        </mxCell>
        <mxCell id="c-4hdjWBJge9S7SUYtmN-24" value="Nginx" style="text;html=1;align=center;verticalAlign=middle;whiteSpace=wrap;rounded=0;" vertex="1" parent="1">
          <mxGeometry x="380" y="500" width="60" height="30" as="geometry" />
        </mxCell>
        <mxCell id="c-4hdjWBJge9S7SUYtmN-25" value="Nginx" style="text;html=1;align=center;verticalAlign=middle;whiteSpace=wrap;rounded=0;" vertex="1" parent="1">
          <mxGeometry x="460" y="500" width="60" height="30" as="geometry" />
        </mxCell>
        <mxCell id="c-4hdjWBJge9S7SUYtmN-26" value="Lighttpd" style="text;html=1;align=center;verticalAlign=middle;whiteSpace=wrap;rounded=0;" vertex="1" parent="1">
          <mxGeometry x="540" y="500" width="60" height="30" as="geometry" />
        </mxCell>
        <mxCell id="c-4hdjWBJge9S7SUYtmN-27" value="Lighttpd" style="text;html=1;align=center;verticalAlign=middle;whiteSpace=wrap;rounded=0;" vertex="1" parent="1">
          <mxGeometry x="620" y="500" width="60" height="30" as="geometry" />
        </mxCell>
        <mxCell id="c-4hdjWBJge9S7SUYtmN-28" value="Lighttpd" style="text;html=1;align=center;verticalAlign=middle;whiteSpace=wrap;rounded=0;" vertex="1" parent="1">
          <mxGeometry x="700" y="500" width="60" height="30" as="geometry" />
        </mxCell>
        <mxCell id="c-4hdjWBJge9S7SUYtmN-29" value="" style="endArrow=classic;startArrow=classic;html=1;rounded=0;entryX=0.699;entryY=1.026;entryDx=0;entryDy=0;entryPerimeter=0;exitX=0.5;exitY=0;exitDx=0;exitDy=0;" edge="1" parent="1" source="c-4hdjWBJge9S7SUYtmN-12" target="c-4hdjWBJge9S7SUYtmN-2">
          <mxGeometry width="50" height="50" relative="1" as="geometry">
            <mxPoint x="380" y="410" as="sourcePoint" />
            <mxPoint x="430" y="360" as="targetPoint" />
          </mxGeometry>
        </mxCell>
        <mxCell id="c-4hdjWBJge9S7SUYtmN-30" value="" style="endArrow=classic;startArrow=classic;html=1;rounded=0;entryX=0.699;entryY=1.026;entryDx=0;entryDy=0;entryPerimeter=0;exitX=0.5;exitY=0;exitDx=0;exitDy=0;" edge="1" parent="1" source="c-4hdjWBJge9S7SUYtmN-11">
          <mxGeometry width="50" height="50" relative="1" as="geometry">
            <mxPoint x="196" y="488" as="sourcePoint" />
            <mxPoint x="200" y="430" as="targetPoint" />
          </mxGeometry>
        </mxCell>
        <mxCell id="c-4hdjWBJge9S7SUYtmN-31" value="" style="endArrow=classic;startArrow=classic;html=1;rounded=0;entryX=0;entryY=1;entryDx=0;entryDy=0;exitX=0.5;exitY=0;exitDx=0;exitDy=0;" edge="1" parent="1" source="c-4hdjWBJge9S7SUYtmN-10" target="c-4hdjWBJge9S7SUYtmN-2">
          <mxGeometry width="50" height="50" relative="1" as="geometry">
            <mxPoint x="270" y="510" as="sourcePoint" />
            <mxPoint x="274" y="452" as="targetPoint" />
          </mxGeometry>
        </mxCell>
        <mxCell id="c-4hdjWBJge9S7SUYtmN-33" value="" style="ellipse;shape=cloud;whiteSpace=wrap;html=1;" vertex="1" parent="1">
          <mxGeometry x="220" y="580" width="380" height="290" as="geometry" />
        </mxCell>
        <mxCell id="c-4hdjWBJge9S7SUYtmN-34" value="&lt;font style=&quot;font-size: 24px;&quot;&gt;Hello, im {OS}&lt;/font&gt;&lt;div&gt;&lt;font style=&quot;font-size: 24px;&quot;&gt;My web server is:&lt;/font&gt;&lt;/div&gt;&lt;div&gt;&lt;font style=&quot;font-size: 24px;&quot;&gt;{web server}&amp;nbsp;&lt;/font&gt;&lt;/div&gt;" style="text;html=1;align=center;verticalAlign=middle;whiteSpace=wrap;rounded=0;" vertex="1" parent="1">
          <mxGeometry x="260" y="670" width="300" height="110" as="geometry" />
        </mxCell>
      </root>
    </mxGraphModel>
  </diagram>
</mxfile>
